<svg version="1.1" viewBox="0.0 0.0 511.0551181102362 310.09448818897636" fill="none" stroke="none" stroke-linecap="square" stroke-miterlimit="10" xmlns:xlink="http://www.w3.org/1999/xlink" xmlns="http://www.w3.org/2000/svg"><clipPath id="p.0"><path d="m0 0l511.0551 0l0 310.09448l-511.0551 0l0 -310.09448z" clip-rule="nonzero"/></clipPath><g clip-path="url(#p.0)"><path fill="#000000" fill-opacity="0.0" d="m0 0l511.0551 0l0 310.09448l-511.0551 0z" fill-rule="evenodd"/><path fill="#ff0000" d="m64.50705 231.59988l0 0c-26.47488 -82.5383 39.871582 -177.63019 148.18898 -212.39369c108.3174 -34.763496 217.58812 3.9656334 244.06297 86.50394l0 0c-47.487427 -57.177734 -141.43707 -76.46535 -231.56483 -47.539642c-90.12778 28.925705 -155.32117 99.28885 -160.68712 173.4294z" fill-rule="evenodd"/><path fill="#ff9900" d="m69.77694 235.4593l0 0c-22.352314 -83.73854 48.62642 -175.42499 158.53543 -204.7874c109.90901 -29.362415 217.128 14.718149 239.48033 98.45669l0 0c-44.596252 -59.45025 -137.47623 -83.35741 -228.92834 -58.92579c-91.45212 24.431618 -160.05365 91.47889 -169.0874 165.2565z" fill-rule="evenodd"/><path fill="#ffff00" d="m71.30626 262.15134l0 0c-22.352314 -83.738525 50.17051 -175.83391 161.98425 -205.70078c111.813736 -29.866865 220.57683 13.80476 242.92912 97.543304l0 0c-45.060944 -59.32717 -139.34015 -82.863754 -232.37715 -58.012405c-93.03699 24.851357 -163.03775 92.269196 -172.53622 166.16988z" fill-rule="evenodd"/><path fill="#00ff00" d="m74.94919 268.45923l0 0c-17.203457 -84.93878 60.804764 -172.43715 174.23622 -195.43307c113.43144 -22.995918 219.33199 27.218697 236.53542 112.15748l0 0c-41.35971 -61.958305 -134.03104 -91.194214 -228.4141 -72.059975c-94.38304 19.13424 -168.36848 82.156425 -182.35754 155.33557z" fill-rule="evenodd"/><path fill="#0000ff" d="m83.00288 270.65485l0 0c-11.1152725 -85.94768 72.92123 -167.67157 187.7008 -182.53543c114.77954 -14.863853 216.83746 42.76098 227.95276 128.70865l0 0c-36.84549 -64.7449 -127.200775 -100.50266 -222.7055 -88.13487c-95.504776 12.367783 -173.78694 69.96394 -192.94806 141.96164z" fill-rule="evenodd"/><path fill="#9900ff" d="m88.95541 298.0866l0 0c-11.1152725 -85.94768 73.56989 -167.75618 189.1496 -182.7244c115.57971 -14.968224 218.28632 42.572 229.40158 128.51968l0 0c-29.297089 -71.81349 -123.90878 -114.07706 -225.82681 -100.8781c-101.918015 13.198944 -182.66122 78.17197 -192.72437 155.08281z" fill-rule="evenodd"/><path fill="#c9daf8" d="m32.194553 208.76944l0 0c2.7819748 -8.866989 10.180428 -15.496567 19.055923 -17.075577c8.875492 -1.5789948 17.67146 2.16951 22.655445 9.654892l0 0c4.71418 -3.7233582 10.778366 -4.9946747 16.358253 -3.4293823c5.5798798 1.5652771 10.020096 5.78331 11.977554 11.37822l0 0c4.1391296 -3.4383087 9.632004 -4.4940643 14.529449 -2.7926636c4.8974457 1.7014008 8.506371 5.9191895 9.546127 11.156677l0 0c5.9551086 -2.91951 12.900421 -2.096054 17.830658 2.114029c4.9302216 4.2100983 6.9598694 11.050659 5.210678 17.561752l0 0c4.0332947 3.4769287 6.343521 8.641907 6.3338165 14.160477c-0.009719849 5.5185547 -2.33844 10.849365 -6.384491 14.615082l0 0c1.6913452 8.353577 -1.0822296 17.159363 -7.285675 23.131165c-6.2034454 5.9718323 -14.90477 8.212524 -22.856781 5.8858643c-3.2140884 6.8110657 -9.695023 11.427307 -16.944778 12.069397c-7.249756 0.64208984 -14.136253 -2.7902222 -18.005135 -8.9739685c-6.147766 7.094391 -15.57972 10.044067 -24.220905 7.5746765c-8.641186 -2.4694214 -14.942505 -9.915253 -16.181553 -19.120575c-7.1718483 0.9376831 -14.29915 -1.1332092 -19.774136 -5.745514c-5.474983 -4.6123047 -8.836463 -11.377533 -9.326155 -18.769531l0 0c-5.9935303 -1.9284363 -10.0541935 -7.5422974 -10.1666975 -14.05545c-0.11250353 -6.5131683 3.7471018 -12.539139 9.663308 -15.08725l0 0c-3.6171818 -5.4586334 -3.3366575 -12.840729 0.6952896 -18.296814c4.031948 -5.4561005 10.901665 -7.7498016 17.026863 -5.6850586z" fill-rule="evenodd"/><path fill="#000000" fill-opacity="0.0" d="m14.211169 233.02182l0 0c1.7069597 2.575943 4.1564703 4.519287 7.0196486 5.5690765m-6.517749 23.573563c1.2535334 0.40335083 2.5587149 0.6333313 3.8818884 0.6840515m25.21692 23.829865c-0.22830963 -1.696167 -0.2792549 -3.419403 -0.15197754 -5.14032m40.55599 16.686646l0 0c1.1208344 -1.293396 2.1102676 -2.700531 2.951805 -4.197876m31.996796 1.1025391c3.4218903 -7.251465 2.5567856 -15.740234 -2.2237244 -21.82019m32.365707 -7.1961365c-2.159134 2.009552 -4.7222595 3.4925537 -7.4884186 4.3327637m7.540344 -33.108536l0 0c-0.2902832 1.0805206 -0.6802368 2.133194 -1.164444 3.1434326m-21.876587 -22.818695l0 0c-1.4855118 0.7282715 -2.867714 1.6706085 -4.1035843 2.7976685m-19.971977 -11.162308l0 0c-0.9940872 0.82577515 -1.8889618 1.7722168 -2.6640015 2.8175201m-25.672234 -10.766434l0 0c1.0546112 1.5838928 1.9139633 3.3006592 2.5591812 5.1125793m-44.2702 2.3084106l0 0c-0.38342857 1.2220917 -0.67338943 2.470169 -0.8671684 3.732544" fill-rule="evenodd"/><path stroke="#999999" stroke-width="1.0" stroke-linejoin="round" stroke-linecap="butt" d="m32.194553 208.76944l0 0c2.7819748 -8.866989 10.180428 -15.496567 19.055923 -17.075577c8.875492 -1.5789948 17.67146 2.16951 22.655445 9.654892l0 0c4.71418 -3.7233582 10.778366 -4.9946747 16.358253 -3.4293823c5.5798798 1.5652771 10.020096 5.78331 11.977554 11.37822l0 0c4.1391296 -3.4383087 9.632004 -4.4940643 14.529449 -2.7926636c4.8974457 1.7014008 8.506371 5.9191895 9.546127 11.156677l0 0c5.9551086 -2.91951 12.900421 -2.096054 17.830658 2.114029c4.9302216 4.2100983 6.9598694 11.050659 5.210678 17.561752l0 0c4.0332947 3.4769287 6.343521 8.641907 6.3338165 14.160477c-0.009719849 5.5185547 -2.33844 10.849365 -6.384491 14.615082l0 0c1.6913452 8.353577 -1.0822296 17.159363 -7.285675 23.131165c-6.2034454 5.9718323 -14.90477 8.212524 -22.856781 5.8858643c-3.2140884 6.8110657 -9.695023 11.427307 -16.944778 12.069397c-7.249756 0.64208984 -14.136253 -2.7902222 -18.005135 -8.9739685c-6.147766 7.094391 -15.57972 10.044067 -24.220905 7.5746765c-8.641186 -2.4694214 -14.942505 -9.915253 -16.181553 -19.120575c-7.1718483 0.9376831 -14.29915 -1.1332092 -19.774136 -5.745514c-5.474983 -4.6123047 -8.836463 -11.377533 -9.326155 -18.769531l0 0c-5.9935303 -1.9284363 -10.0541935 -7.5422974 -10.1666975 -14.05545c-0.11250353 -6.5131683 3.7471018 -12.539139 9.663308 -15.08725l0 0c-3.6171818 -5.4586334 -3.3366575 -12.840729 0.6952896 -18.296814c4.031948 -5.4561005 10.901665 -7.7498016 17.026863 -5.6850586z" fill-rule="evenodd"/><path stroke="#999999" stroke-width="1.0" stroke-linejoin="round" stroke-linecap="butt" d="m14.211169 233.02182l0 0c1.7069597 2.575943 4.1564703 4.519287 7.0196486 5.5690765m-6.517749 23.573563c1.2535334 0.40335083 2.5587149 0.6333313 3.8818884 0.6840515m25.21692 23.829865c-0.22830963 -1.696167 -0.2792549 -3.419403 -0.15197754 -5.14032m40.55599 16.686646l0 0c1.1208344 -1.293396 2.1102676 -2.700531 2.951805 -4.197876m31.996796 1.1025391c3.4218903 -7.251465 2.5567856 -15.740234 -2.2237244 -21.82019m32.365707 -7.1961365c-2.159134 2.009552 -4.7222595 3.4925537 -7.4884186 4.3327637m7.540344 -33.108536l0 0c-0.2902832 1.0805206 -0.6802368 2.133194 -1.164444 3.1434326m-21.876587 -22.818695l0 0c-1.4855118 0.7282715 -2.867714 1.6706085 -4.1035843 2.7976685m-19.971977 -11.162308l0 0c-0.9940872 0.82577515 -1.8889618 1.7722168 -2.6640015 2.8175201m-25.672234 -10.766434l0 0c1.0546112 1.5838928 1.9139633 3.3006592 2.5591812 5.1125793m-44.2702 2.3084106l0 0c-0.38342857 1.2220917 -0.67338943 2.470169 -0.8671684 3.732544" fill-rule="evenodd"/></g></svg>